PathFileType	4	(X/Y/Z)	_05Apr_ss_11ms_01.trc
DataRate	CameraRate	NumFrames	NumMarkers	Units	OrigDataRate	OrigDataStartFrame	OrigNumFrames
200.000000	200.000000	5	42	mm	200.000000	3020	6114
Frame#	Time	LASI			RASI			LPSI			RPSI			LTH1			LTH2			LTH3			LTH4			LMFC			LLFC			LTB1			LTB2			LTB3			LTB4			LMMAL			LLMAL			LCAL			LToe			LMT1			LMT5			RTH1			RTH2			RTH3			RTH4			RMFC			RLFC			RTB1			RTB2			RTB3			RTB4			RMMAL			RLMAL			RCAL			RToe			RMT1			RMT5			C7			T10			LACR1			RACR1			CLAV			RBack			
		X1	Y1	Z1	X2	Y2	Z2	X3	Y3	Z3	X4	Y4	Z4	X5	Y5	Z5	X6	Y6	Z6	X7	Y7	Z7	X8	Y8	Z8	X9	Y9	Z9	X10	Y10	Z10	X11	Y11	Z11	X12	Y12	Z12	X13	Y13	Z13	X14	Y14	Z14	X15	Y15	Z15	X16	Y16	Z16	X17	Y17	Z17	X18	Y18	Z18	X19	Y19	Z19	X20	Y20	Z20	X21	Y21	Z21	X22	Y22	Z22	X23	Y23	Z23	X24	Y24	Z24	X25	Y25	Z25	X26	Y26	Z26	X27	Y27	Z27	X28	Y28	Z28	X29	Y29	Z29	X30	Y30	Z30	X31	Y31	Z31	X32	Y32	Z32	X33	Y33	Z33	X34	Y34	Z34	X35	Y35	Z35	X36	Y36	Z36	X37	Y37	Z37	X38	Y38	Z38	X39	Y39	Z39	X40	Y40	Z40	X41	Y41	Z41	X42	Y42	Z42	

3020	15.09	341.08051	986.90454	-862.90472	587.03607	1001.85010	-866.77991	427.54550	1014.97020	-687.81738	519.07556	1011.34600	-688.51965	301.43256	786.63428	-837.99756	347.32449	789.84064	-883.04120	327.58057	746.76117	-863.20862	322.09720	696.92493	-842.23627	455.34760	499.74799	-741.08246	336.14792	512.08759	-742.11230	322.24777	385.09735	-674.82581	333.23688	342.66254	-696.34528	352.35645	292.60571	-705.93616	336.27390	378.33713	-734.42987	473.95859	110.02802	-662.51007	387.49753	89.06591	-634.04028	443.44351	50.63455	-562.21515	433.63269	48.42384	-839.00879	465.89059	34.37139	-775.67096	354.66431	39.97499	-746.72021	656.75897	858.25275	-893.61676	668.85706	804.84717	-886.14404	665.57733	759.58325	-867.76636	664.83130	774.72656	-928.26813	517.66614	535.72150	-996.00848	639.81134	534.27997	-977.05511	622.84015	279.77106	-1022.09940	636.35883	274.79700	-957.29999	632.28235	238.89154	-990.93939	619.26312	190.26106	-1015.32520	539.22992	130.92000	-1021.19260	621.95367	112.23313	-986.59613	552.33618	60.33371	-933.59192	605.60315	102.67149	-1194.30590	563.64178	73.12863	-1145.63430	665.58234	68.05675	-1100.65880	466.65390	1493.91390	-749.57996	467.21039	1232.51430	-652.07440	293.88583	1462.15530	-807.17358	643.47437	1433.50960	-810.06134	469.48355	1398.79810	-879.02423	587.80719	1369.59290	-677.48645
3021	15.095	341.25366	985.98206	-862.70496	587.28265	1000.93620	-866.62122	427.79092	1014.13420	-687.65918	519.51532	1010.57310	-687.04181	301.69815	785.80341	-836.72144	347.48343	788.66205	-881.74530	327.93134	745.73932	-861.52948	322.47888	696.15991	-840.29694	455.28549	499.40356	-737.19598	336.43240	511.93344	-738.49677	321.87851	385.27649	-669.87134	333.19086	342.70764	-691.83075	352.33817	292.68039	-701.15851	336.23547	378.26859	-730.13367	473.99701	110.15281	-657.20697	387.56793	89.34152	-628.55469	443.49454	50.76439	-556.69434	433.55551	48.22938	-833.50897	465.94711	34.39950	-770.09375	354.61084	39.90784	-741.13464	656.45874	856.37128	-892.61609	669.18408	803.27502	-884.88049	665.70575	758.15082	-866.17444	665.01526	772.89984	-926.77173	516.73413	533.76898	-994.14484	639.53424	532.74609	-975.59698	622.89374	279.82227	-1028.57470	636.47247	272.66174	-963.96906	632.21661	237.70563	-999.82422	619.52484	190.08461	-1024.71350	539.66901	130.56438	-1032.05000	622.26563	109.47115	-999.58411	552.93665	57.64952	-946.83447	605.05957	107.35591	-1206.47440	563.30853	76.18062	-1157.50020	665.19562	69.88755	-1114.00260	466.91260	1493.02280	-749.44067	467.46948	1231.60120	-651.92426	294.28818	1461.31290	-807.25134	643.79681	1432.66540	-809.79480	469.82892	1397.92190	-878.90192	587.98621	1368.71420	-677.26477
3022	15.1	341.59076	984.99878	-862.57953	587.56720	999.92798	-866.52185	428.06848	1013.27890	-687.57404	519.71362	1009.60080	-686.91193	301.82581	784.92194	-835.43823	347.70621	787.55011	-880.38367	328.20938	744.71960	-859.94971	322.73996	695.33282	-838.33185	455.21497	499.40182	-733.58752	336.40564	511.77722	-734.95032	321.91812	385.50708	-665.61932	333.25821	342.81470	-687.32233	351.74509	292.56113	-696.08533	336.20709	378.14648	-725.75153	474.05261	110.28912	-651.84454	387.61581	89.56218	-622.97888	443.49191	50.96140	-551.16144	433.52194	48.14790	-828.02673	465.93152	34.44868	-764.54553	354.63281	39.92144	-735.52362	657.26947	854.98383	-891.82941	669.45319	801.68829	-883.54425	665.81799	756.65283	-864.51947	665.23358	770.91815	-925.19470	516.27734	531.78082	-991.69672	639.40027	531.21344	-974.12671	622.94647	280.03653	-1034.77980	636.59741	270.74133	-970.38318	632.48456	237.21121	-1006.57600	619.77930	190.20909	-1033.67770	539.62512	130.96246	-1042.94750	622.71350	108.98775	-1010.98490	553.43988	55.46236	-959.74017	604.28503	112.25623	-1218.21450	562.72711	80.11280	-1170.83570	664.79156	72.08551	-1127.11720	467.21744	1492.09660	-749.33014	467.72433	1230.72920	-651.75586	294.66376	1460.49000	-807.27698	644.09912	1431.73080	-809.53717	470.21664	1397.04640	-878.84265	588.17480	1367.78040	-677.08545
3023	15.105	341.85791	984.03491	-862.53217	587.81366	998.88745	-866.38873	428.29413	1012.38130	-687.43097	519.93060	1008.64220	-686.76373	301.92303	784.05219	-834.20850	347.24460	785.96576	-878.56110	328.40921	743.70966	-858.35315	322.96213	694.49872	-836.43219	455.23572	499.08548	-729.87671	336.40015	511.61295	-731.45929	322.02536	385.57819	-661.38617	333.11829	343.08383	-683.15247	351.47095	292.51288	-691.37048	336.17972	378.08197	-721.47992	474.08862	110.43243	-646.52844	387.66632	89.84486	-617.51819	443.48276	51.23040	-545.71375	433.32922	47.88788	-822.48523	465.81055	34.30095	-759.01483	354.59680	39.91298	-729.96161	657.55267	853.10516	-890.90558	669.66113	799.86169	-882.14209	665.83521	755.04602	-862.70380	664.97638	768.65088	-923.47522	515.63977	529.78815	-989.41266	639.21942	529.64557	-972.62665	622.99609	280.44199	-1040.69140	636.73358	269.21387	-976.73749	632.87402	236.72795	-1014.13100	620.08911	190.57129	-1042.14540	539.75391	131.58597	-1053.24800	622.70886	108.96235	-1022.19320	553.78955	53.72285	-972.26385	603.76031	117.55368	-1229.69420	562.03857	83.76602	-1181.73900	664.56329	74.61395	-1139.99270	467.51563	1491.13990	-749.20831	468.03687	1229.75950	-651.62115	295.08142	1459.59740	-807.35352	644.48499	1430.79390	-809.35797	470.66180	1396.12780	-878.77271	588.47034	1366.81970	-676.93756
3024	15.11	342.12613	983.03046	-862.48425	588.09216	997.81671	-866.31183	428.56473	1011.36090	-687.36572	520.08063	1007.38860	-687.70013	302.08936	783.21698	-833.02930	347.42828	784.78082	-877.47662	328.56332	742.63049	-856.76526	323.30078	693.60114	-834.55377	455.31656	499.12692	-726.46051	336.59634	511.45352	-728.06366	322.15894	385.77991	-657.30334	333.21756	343.08374	-678.55841	351.52161	292.51422	-686.85730	336.14490	377.93195	-717.27222	474.14307	110.61240	-641.29913	387.46967	90.28415	-611.71545	443.53668	51.50985	-540.18921	433.29544	47.78249	-817.02887	465.67038	34.23354	-753.44550	354.54556	39.89229	-724.41809	657.90912	851.19287	-889.89465	669.99908	798.01318	-880.67401	665.91998	753.36560	-860.89209	665.22864	766.45197	-921.64227	515.27069	527.44470	-987.04779	639.17706	528.11566	-971.23566	623.03528	281.02017	-1046.35520	636.92883	267.93277	-982.81683	632.87830	236.48137	-1020.98020	619.47058	191.17827	-1050.68710	539.84308	132.36380	-1062.94520	622.79181	109.07621	-1032.92360	554.12860	52.42813	-984.25348	602.37494	122.54898	-1240.04140	561.10126	88.11836	-1193.82500	663.87189	77.46732	-1152.05630	467.84344	1490.14860	-749.06464	468.35526	1228.74630	-651.49091	295.46585	1458.63550	-807.39905	644.86011	1429.77890	-809.18066	471.06937	1395.13810	-878.67963	588.71362	1365.83130	-676.77185
